<svg width="390" height="46" viewBox="0 0 390 46" fill="none" xmlns="http://www.w3.org/2000/svg">
<path d="M180.5 0.5H367C379.426 0.5 389.5 10.5736 389.5 23C389.5 35.4264 379.426 45.5 367 45.5H180.5V0.5Z" stroke="#7772F1"/>
<rect width="102" height="26" transform="translate(234 10)" fill="white"/>
<path d="M240.554 24.504V29H238.402V24.504L234.186 17.432H236.082C236.269 17.432 236.416 17.4773 236.522 17.568C236.634 17.6587 236.728 17.7733 236.802 17.912L238.922 21.776C239.045 22.0053 239.152 22.224 239.242 22.432C239.333 22.6347 239.416 22.8347 239.49 23.032C239.56 22.8293 239.637 22.6267 239.722 22.424C239.813 22.216 239.92 22 240.042 21.776L242.146 17.912C242.205 17.7947 242.293 17.6853 242.41 17.584C242.528 17.4827 242.677 17.432 242.858 17.432H244.762L240.554 24.504ZM247.878 20.664C248.395 20.664 248.87 20.7467 249.302 20.912C249.739 21.0773 250.115 21.32 250.43 21.64C250.744 21.9547 250.99 22.344 251.166 22.808C251.342 23.2667 251.43 23.792 251.43 24.384C251.43 24.5333 251.422 24.6587 251.406 24.76C251.395 24.856 251.371 24.9333 251.334 24.992C251.302 25.0453 251.256 25.0853 251.198 25.112C251.139 25.1333 251.064 25.144 250.974 25.144H245.902C245.96 25.9867 246.187 26.6053 246.582 27C246.976 27.3947 247.499 27.592 248.15 27.592C248.47 27.592 248.744 27.5547 248.974 27.48C249.208 27.4053 249.411 27.3227 249.582 27.232C249.758 27.1413 249.91 27.0587 250.038 26.984C250.171 26.9093 250.299 26.872 250.422 26.872C250.502 26.872 250.571 26.888 250.63 26.92C250.688 26.952 250.739 26.9973 250.782 27.056L251.358 27.776C251.139 28.032 250.894 28.248 250.622 28.424C250.35 28.5947 250.064 28.7333 249.766 28.84C249.472 28.9413 249.171 29.0133 248.862 29.056C248.558 29.0987 248.262 29.12 247.974 29.12C247.403 29.12 246.872 29.0267 246.382 28.84C245.891 28.648 245.464 28.368 245.102 28C244.739 27.6267 244.454 27.168 244.246 26.624C244.038 26.0747 243.934 25.44 243.934 24.72C243.934 24.16 244.024 23.6347 244.206 23.144C244.387 22.648 244.646 22.2187 244.982 21.856C245.323 21.488 245.736 21.1973 246.222 20.984C246.712 20.7707 247.264 20.664 247.878 20.664ZM247.918 22.08C247.342 22.08 246.891 22.2427 246.566 22.568C246.24 22.8933 246.032 23.3547 245.942 23.952H249.654C249.654 23.696 249.619 23.456 249.55 23.232C249.48 23.0027 249.374 22.8027 249.23 22.632C249.086 22.4613 248.904 22.328 248.686 22.232C248.467 22.1307 248.211 22.08 247.918 22.08ZM259.465 29H258.577C258.39 29 258.243 28.9733 258.137 28.92C258.03 28.8613 257.95 28.7467 257.897 28.576L257.721 27.992C257.513 28.1787 257.307 28.344 257.105 28.488C256.907 28.6267 256.702 28.744 256.489 28.84C256.275 28.936 256.049 29.008 255.809 29.056C255.569 29.104 255.302 29.128 255.009 29.128C254.662 29.128 254.342 29.0827 254.049 28.992C253.755 28.896 253.502 28.7547 253.289 28.568C253.081 28.3813 252.918 28.1493 252.801 27.872C252.683 27.5947 252.625 27.272 252.625 26.904C252.625 26.5947 252.705 26.2907 252.865 25.992C253.03 25.688 253.302 25.416 253.681 25.176C254.059 24.9307 254.563 24.728 255.193 24.568C255.822 24.408 256.603 24.3173 257.537 24.296V23.816C257.537 23.2667 257.419 22.8613 257.185 22.6C256.955 22.3333 256.619 22.2 256.177 22.2C255.857 22.2 255.59 22.2373 255.377 22.312C255.163 22.3867 254.977 22.472 254.817 22.568C254.662 22.6587 254.518 22.7413 254.385 22.816C254.251 22.8907 254.105 22.928 253.945 22.928C253.811 22.928 253.697 22.8933 253.601 22.824C253.505 22.7547 253.427 22.6693 253.369 22.568L253.009 21.936C253.953 21.072 255.091 20.64 256.425 20.64C256.905 20.64 257.331 20.72 257.705 20.88C258.083 21.0347 258.403 21.2533 258.665 21.536C258.926 21.8133 259.123 22.1467 259.257 22.536C259.395 22.9253 259.465 23.352 259.465 23.816V29ZM255.625 27.768C255.827 27.768 256.014 27.7493 256.185 27.712C256.355 27.6747 256.515 27.6187 256.665 27.544C256.819 27.4693 256.966 27.3787 257.105 27.272C257.249 27.16 257.393 27.0293 257.537 26.88V25.496C256.961 25.5227 256.478 25.5733 256.089 25.648C255.705 25.7173 255.395 25.808 255.161 25.92C254.926 26.032 254.758 26.1627 254.657 26.312C254.561 26.4613 254.513 26.624 254.513 26.8C254.513 27.1467 254.614 27.3947 254.817 27.544C255.025 27.6933 255.294 27.768 255.625 27.768ZM261.408 29V20.792H262.568C262.77 20.792 262.912 20.8293 262.992 20.904C263.072 20.9787 263.125 21.1067 263.152 21.288L263.272 22.28C263.565 21.7733 263.909 21.3733 264.304 21.08C264.698 20.7867 265.141 20.64 265.632 20.64C266.037 20.64 266.373 20.7333 266.64 20.92L266.384 22.4C266.368 22.496 266.333 22.5653 266.28 22.608C266.226 22.6453 266.154 22.664 266.064 22.664C265.984 22.664 265.874 22.6453 265.736 22.608C265.597 22.5707 265.413 22.552 265.184 22.552C264.773 22.552 264.421 22.6667 264.128 22.896C263.834 23.12 263.586 23.4507 263.384 23.888V29H261.408ZM270.043 17.112V29H268.067V17.112H270.043ZM275.195 31.256C275.136 31.3947 275.059 31.4987 274.963 31.568C274.872 31.6427 274.731 31.68 274.539 31.68H273.067L274.603 28.392L271.283 20.792H273.011C273.171 20.792 273.293 20.8293 273.379 20.904C273.464 20.9787 273.528 21.064 273.571 21.16L275.323 25.416C275.381 25.5547 275.432 25.6987 275.475 25.848C275.517 25.9973 275.555 26.1467 275.587 26.296C275.629 26.1413 275.675 25.992 275.723 25.848C275.776 25.704 275.832 25.5573 275.891 25.408L277.539 21.16C277.581 21.0533 277.651 20.9653 277.747 20.896C277.848 20.8267 277.96 20.792 278.083 20.792H279.667L275.195 31.256Z" fill="#7772F1"/>
<path d="M288.6 23.95H291.564V24.856H288.6V23.95ZM293.882 27.184H295.73V21.322C295.73 21.146 295.736 20.968 295.748 20.788L294.212 22.102C294.172 22.134 294.132 22.158 294.092 22.174C294.052 22.186 294.014 22.192 293.978 22.192C293.918 22.192 293.864 22.18 293.816 22.156C293.768 22.128 293.732 22.096 293.708 22.06L293.372 21.598L295.928 19.384H296.798V27.184H298.49V28H293.882V27.184ZM302.727 19.306C303.091 19.306 303.431 19.36 303.747 19.468C304.063 19.576 304.335 19.734 304.563 19.942C304.795 20.146 304.977 20.396 305.109 20.692C305.241 20.988 305.307 21.324 305.307 21.7C305.307 22.02 305.259 22.316 305.163 22.588C305.067 22.86 304.937 23.122 304.773 23.374C304.609 23.622 304.419 23.864 304.203 24.1C303.991 24.332 303.765 24.57 303.525 24.814L301.263 27.13C301.423 27.086 301.585 27.052 301.749 27.028C301.913 27 302.071 26.986 302.223 26.986H305.103C305.219 26.986 305.311 27.02 305.379 27.088C305.447 27.156 305.481 27.244 305.481 27.352V28H299.745V27.634C299.745 27.558 299.759 27.48 299.787 27.4C299.819 27.32 299.869 27.246 299.937 27.178L302.691 24.412C302.919 24.18 303.127 23.958 303.315 23.746C303.503 23.53 303.663 23.314 303.795 23.098C303.931 22.882 304.035 22.664 304.107 22.444C304.179 22.22 304.215 21.982 304.215 21.73C304.215 21.478 304.175 21.258 304.095 21.07C304.015 20.878 303.905 20.72 303.765 20.596C303.625 20.472 303.461 20.38 303.273 20.32C303.085 20.256 302.883 20.224 302.667 20.224C302.451 20.224 302.251 20.256 302.067 20.32C301.883 20.384 301.719 20.474 301.575 20.59C301.435 20.702 301.315 20.836 301.215 20.992C301.119 21.148 301.051 21.32 301.011 21.508C300.979 21.624 300.931 21.708 300.867 21.76C300.803 21.812 300.719 21.838 300.615 21.838C300.595 21.838 300.573 21.838 300.549 21.838C300.529 21.834 300.505 21.83 300.477 21.826L299.919 21.73C299.975 21.338 300.083 20.992 300.243 20.692C300.403 20.388 300.605 20.134 300.849 19.93C301.097 19.726 301.379 19.572 301.695 19.468C302.015 19.36 302.359 19.306 302.727 19.306ZM310.324 21.478C310.324 21.814 310.272 22.116 310.168 22.384C310.064 22.648 309.924 22.872 309.748 23.056C309.576 23.236 309.374 23.374 309.142 23.47C308.91 23.566 308.668 23.614 308.416 23.614C308.144 23.614 307.892 23.566 307.66 23.47C307.432 23.374 307.232 23.236 307.06 23.056C306.888 22.872 306.754 22.648 306.658 22.384C306.562 22.116 306.514 21.814 306.514 21.478C306.514 21.134 306.562 20.828 306.658 20.56C306.754 20.292 306.888 20.066 307.06 19.882C307.232 19.698 307.432 19.558 307.66 19.462C307.892 19.366 308.144 19.318 308.416 19.318C308.684 19.318 308.934 19.366 309.166 19.462C309.402 19.558 309.604 19.698 309.772 19.882C309.944 20.066 310.078 20.292 310.174 20.56C310.274 20.828 310.324 21.134 310.324 21.478ZM309.49 21.478C309.49 21.214 309.462 20.99 309.406 20.806C309.35 20.622 309.272 20.472 309.172 20.356C309.076 20.236 308.962 20.15 308.83 20.098C308.702 20.046 308.564 20.02 308.416 20.02C308.268 20.02 308.128 20.046 307.996 20.098C307.868 20.15 307.756 20.236 307.66 20.356C307.564 20.472 307.488 20.622 307.432 20.806C307.38 20.99 307.354 21.214 307.354 21.478C307.354 21.738 307.38 21.96 307.432 22.144C307.488 22.324 307.564 22.472 307.66 22.588C307.756 22.7 307.868 22.782 307.996 22.834C308.128 22.882 308.268 22.906 308.416 22.906C308.564 22.906 308.702 22.882 308.83 22.834C308.962 22.782 309.076 22.7 309.172 22.588C309.272 22.472 309.35 22.324 309.406 22.144C309.462 21.96 309.49 21.738 309.49 21.478ZM313.33 19.618C313.382 19.55 313.436 19.498 313.492 19.462C313.552 19.422 313.63 19.402 313.726 19.402H314.494L308.212 27.826C308.172 27.878 308.124 27.92 308.068 27.952C308.012 27.984 307.946 28 307.87 28H307.078L313.33 19.618ZM315.076 25.972C315.076 26.308 315.024 26.608 314.92 26.872C314.816 27.136 314.676 27.36 314.5 27.544C314.328 27.724 314.126 27.862 313.894 27.958C313.666 28.054 313.426 28.102 313.174 28.102C312.902 28.102 312.65 28.054 312.418 27.958C312.19 27.862 311.99 27.724 311.818 27.544C311.646 27.36 311.512 27.136 311.416 26.872C311.32 26.608 311.272 26.308 311.272 25.972C311.272 25.628 311.32 25.322 311.416 25.054C311.512 24.782 311.646 24.554 311.818 24.37C311.99 24.186 312.19 24.046 312.418 23.95C312.65 23.854 312.902 23.806 313.174 23.806C313.442 23.806 313.692 23.854 313.924 23.95C314.156 24.046 314.358 24.186 314.53 24.37C314.702 24.554 314.836 24.782 314.932 25.054C315.028 25.322 315.076 25.628 315.076 25.972ZM314.248 25.972C314.248 25.708 314.22 25.484 314.164 25.3C314.108 25.112 314.03 24.96 313.93 24.844C313.834 24.728 313.72 24.644 313.588 24.592C313.46 24.54 313.322 24.514 313.174 24.514C313.026 24.514 312.886 24.54 312.754 24.592C312.626 24.644 312.514 24.728 312.418 24.844C312.322 24.96 312.246 25.112 312.19 25.3C312.138 25.484 312.112 25.708 312.112 25.972C312.112 26.232 312.138 26.452 312.19 26.632C312.246 26.812 312.322 26.96 312.418 27.076C312.514 27.188 312.626 27.27 312.754 27.322C312.886 27.37 313.026 27.394 313.174 27.394C313.322 27.394 313.46 27.37 313.588 27.322C313.72 27.27 313.834 27.188 313.93 27.076C314.03 26.96 314.108 26.812 314.164 26.632C314.22 26.452 314.248 26.232 314.248 25.972ZM326.866 23.704C326.866 24.348 326.764 24.94 326.56 25.48C326.356 26.016 326.068 26.478 325.696 26.866C325.324 27.254 324.876 27.556 324.352 27.772C323.832 27.984 323.256 28.09 322.624 28.09C321.992 28.09 321.416 27.984 320.896 27.772C320.376 27.556 319.93 27.254 319.558 26.866C319.186 26.478 318.898 26.016 318.694 25.48C318.49 24.94 318.388 24.348 318.388 23.704C318.388 23.06 318.49 22.47 318.694 21.934C318.898 21.394 319.186 20.93 319.558 20.542C319.93 20.15 320.376 19.846 320.896 19.63C321.416 19.414 321.992 19.306 322.624 19.306C323.256 19.306 323.832 19.414 324.352 19.63C324.876 19.846 325.324 20.15 325.696 20.542C326.068 20.93 326.356 21.394 326.56 21.934C326.764 22.47 326.866 23.06 326.866 23.704ZM325.672 23.704C325.672 23.176 325.6 22.702 325.456 22.282C325.312 21.862 325.108 21.508 324.844 21.22C324.58 20.928 324.26 20.704 323.884 20.548C323.508 20.392 323.088 20.314 322.624 20.314C322.164 20.314 321.746 20.392 321.37 20.548C320.994 20.704 320.672 20.928 320.404 21.22C320.14 21.508 319.936 21.862 319.792 22.282C319.648 22.702 319.576 23.176 319.576 23.704C319.576 24.232 319.648 24.706 319.792 25.126C319.936 25.542 320.14 25.896 320.404 26.188C320.672 26.476 320.994 26.698 321.37 26.854C321.746 27.006 322.164 27.082 322.624 27.082C323.088 27.082 323.508 27.006 323.884 26.854C324.26 26.698 324.58 26.476 324.844 26.188C325.108 25.896 325.312 25.542 325.456 25.126C325.6 24.706 325.672 24.232 325.672 23.704ZM328.526 28V22.834L327.854 22.756C327.77 22.736 327.7 22.706 327.644 22.666C327.592 22.622 327.566 22.56 327.566 22.48V22.042H328.526V21.454C328.526 21.106 328.574 20.798 328.67 20.53C328.77 20.258 328.91 20.03 329.09 19.846C329.274 19.658 329.494 19.516 329.75 19.42C330.006 19.324 330.294 19.276 330.614 19.276C330.886 19.276 331.138 19.316 331.37 19.396L331.346 19.93C331.342 20.01 331.308 20.058 331.244 20.074C331.18 20.09 331.09 20.098 330.974 20.098H330.788C330.604 20.098 330.436 20.122 330.284 20.17C330.136 20.218 330.008 20.296 329.9 20.404C329.792 20.512 329.708 20.654 329.648 20.83C329.592 21.006 329.564 21.224 329.564 21.484V22.042H331.322V22.816H329.6V28H328.526ZM332.569 28V22.834L331.897 22.756C331.813 22.736 331.743 22.706 331.687 22.666C331.635 22.622 331.609 22.56 331.609 22.48V22.042H332.569V21.454C332.569 21.106 332.617 20.798 332.713 20.53C332.813 20.258 332.953 20.03 333.133 19.846C333.317 19.658 333.537 19.516 333.793 19.42C334.049 19.324 334.337 19.276 334.657 19.276C334.929 19.276 335.181 19.316 335.413 19.396L335.389 19.93C335.385 20.01 335.351 20.058 335.287 20.074C335.223 20.09 335.133 20.098 335.017 20.098H334.831C334.647 20.098 334.479 20.122 334.327 20.17C334.179 20.218 334.051 20.296 333.943 20.404C333.835 20.512 333.751 20.654 333.691 20.83C333.635 21.006 333.607 21.224 333.607 21.484V22.042H335.365V22.816H333.643V28H332.569Z" fill="#7772F1"/>
<rect width="210" height="46" rx="23" fill="#7772F1"/>
<path d="M81.3666 24.2C81.4573 24.3707 81.54 24.5493 81.6146 24.736C81.6946 24.9173 81.772 25.1013 81.8466 25.288C81.9213 25.096 81.9986 24.9067 82.0786 24.72C82.1586 24.5333 82.244 24.3547 82.3346 24.184L85.7586 17.776C85.8013 17.696 85.844 17.632 85.8866 17.584C85.9346 17.536 85.9853 17.5013 86.0386 17.48C86.0973 17.4587 86.1613 17.4453 86.2306 17.44C86.3 17.4347 86.3826 17.432 86.4786 17.432H88.1026V29H86.2066V21.528C86.2066 21.3893 86.2093 21.2373 86.2146 21.072C86.2253 20.9067 86.2386 20.7387 86.2546 20.568L82.7586 27.128C82.6786 27.2773 82.5746 27.3947 82.4466 27.48C82.3186 27.56 82.1693 27.6 81.9986 27.6H81.7026C81.532 27.6 81.3826 27.56 81.2546 27.48C81.1266 27.3947 81.0226 27.2773 80.9426 27.128L77.3986 20.544C77.42 20.72 77.4333 20.8933 77.4386 21.064C77.4493 21.2293 77.4546 21.384 77.4546 21.528V29H75.5586V17.432H77.1826C77.2786 17.432 77.3613 17.4347 77.4306 17.44C77.5 17.4453 77.5613 17.4587 77.6146 17.48C77.6733 17.5013 77.7266 17.536 77.7746 17.584C77.8226 17.632 77.868 17.696 77.9106 17.776L81.3666 24.2ZM93.8256 20.664C94.439 20.664 94.9936 20.7627 95.4896 20.96C95.991 21.1573 96.4176 21.4373 96.7696 21.8C97.1216 22.1627 97.3936 22.6053 97.5856 23.128C97.7776 23.6507 97.8736 24.2347 97.8736 24.88C97.8736 25.5307 97.7776 26.1173 97.5856 26.64C97.3936 27.1627 97.1216 27.608 96.7696 27.976C96.4176 28.344 95.991 28.6267 95.4896 28.824C94.9936 29.0213 94.439 29.12 93.8256 29.12C93.2123 29.12 92.655 29.0213 92.1536 28.824C91.6523 28.6267 91.223 28.344 90.8656 27.976C90.5136 27.608 90.239 27.1627 90.0416 26.64C89.8496 26.1173 89.7536 25.5307 89.7536 24.88C89.7536 24.2347 89.8496 23.6507 90.0416 23.128C90.239 22.6053 90.5136 22.1627 90.8656 21.8C91.223 21.4373 91.6523 21.1573 92.1536 20.96C92.655 20.7627 93.2123 20.664 93.8256 20.664ZM93.8256 27.6C94.5083 27.6 95.0123 27.3707 95.3376 26.912C95.6683 26.4533 95.8336 25.7813 95.8336 24.896C95.8336 24.0107 95.6683 23.336 95.3376 22.872C95.0123 22.408 94.5083 22.176 93.8256 22.176C93.1323 22.176 92.6203 22.4107 92.2896 22.88C91.959 23.344 91.7936 24.016 91.7936 24.896C91.7936 25.776 91.959 26.448 92.2896 26.912C92.6203 27.3707 93.1323 27.6 93.8256 27.6ZM99.4154 29V20.792H100.623C100.879 20.792 101.047 20.912 101.127 21.152L101.263 21.8C101.429 21.6293 101.602 21.4747 101.783 21.336C101.97 21.1973 102.165 21.0773 102.367 20.976C102.575 20.8747 102.797 20.7973 103.031 20.744C103.266 20.6907 103.522 20.664 103.799 20.664C104.247 20.664 104.645 20.7413 104.991 20.896C105.338 21.0453 105.626 21.2587 105.855 21.536C106.09 21.808 106.266 22.136 106.383 22.52C106.506 22.8987 106.567 23.3173 106.567 23.776V29H104.591V23.776C104.591 23.2747 104.474 22.888 104.239 22.616C104.01 22.3387 103.663 22.2 103.199 22.2C102.858 22.2 102.538 22.2773 102.239 22.432C101.941 22.5867 101.658 22.7973 101.391 23.064V29H99.4154ZM111.205 29.128C110.496 29.128 109.949 28.928 109.565 28.528C109.181 28.1227 108.989 27.5653 108.989 26.856V22.272H108.157C108.05 22.272 107.957 22.2373 107.877 22.168C107.802 22.0987 107.765 21.9947 107.765 21.856V21.072L109.085 20.856L109.501 18.616C109.522 18.5093 109.57 18.4267 109.645 18.368C109.725 18.3093 109.824 18.28 109.941 18.28H110.965V20.864H113.125V22.272H110.965V26.72C110.965 26.976 111.029 27.176 111.157 27.32C111.285 27.464 111.456 27.536 111.669 27.536C111.792 27.536 111.893 27.5227 111.973 27.496C112.058 27.464 112.13 27.432 112.189 27.4C112.253 27.368 112.309 27.3387 112.357 27.312C112.405 27.28 112.453 27.264 112.501 27.264C112.56 27.264 112.608 27.28 112.645 27.312C112.682 27.3387 112.722 27.3813 112.765 27.44L113.357 28.4C113.069 28.64 112.738 28.8213 112.365 28.944C111.992 29.0667 111.605 29.128 111.205 29.128ZM114.697 29V17.112H116.673V21.68C116.993 21.376 117.345 21.1307 117.729 20.944C118.113 20.7573 118.563 20.664 119.081 20.664C119.529 20.664 119.926 20.7413 120.273 20.896C120.619 21.0453 120.907 21.2587 121.137 21.536C121.371 21.808 121.547 22.136 121.665 22.52C121.787 22.8987 121.849 23.3173 121.849 23.776V29H119.873V23.776C119.873 23.2747 119.755 22.888 119.521 22.616C119.291 22.3387 118.945 22.2 118.481 22.2C118.139 22.2 117.819 22.2773 117.521 22.432C117.222 22.5867 116.939 22.7973 116.673 23.064V29H114.697ZM125.894 17.112V29H123.918V17.112H125.894ZM131.046 31.256C130.987 31.3947 130.91 31.4987 130.814 31.568C130.723 31.6427 130.582 31.68 130.39 31.68H128.918L130.454 28.392L127.134 20.792H128.862C129.022 20.792 129.145 20.8293 129.23 20.904C129.315 20.9787 129.379 21.064 129.422 21.16L131.174 25.416C131.233 25.5547 131.283 25.6987 131.326 25.848C131.369 25.9973 131.406 26.1467 131.438 26.296C131.481 26.1413 131.526 25.992 131.574 25.848C131.627 25.704 131.683 25.5573 131.742 25.408L133.39 21.16C133.433 21.0533 133.502 20.9653 133.598 20.896C133.699 20.8267 133.811 20.792 133.934 20.792H135.518L131.046 31.256Z" fill="white"/>
</svg>
